<svg xmlns="http://www.w3.org/2000/svg" width="16" height="16" viewBox="0 0 16 16">
    <path data-name="사각형 2176" style="fill:none" d="M0 0h16v16H0z"/>
    <g data-name="그룹 568">
        <path data-name="패스 6928" d="M7.152 2.749 6.335.874A.255.255 0 0 0 6.1.721H4.507a.255.255 0 0 0-.234.153l-.817 1.875a.255.255 0 0 0 .03.251l.757 1a.25.25 0 0 0 .059.048v5.34h2V4.054a.256.256 0 0 0 .059-.048l.757-1a.255.255 0 0 0 .03-.255" transform="translate(-1.999 -.48)" style="fill:#ffaeae"/>
        <path data-name="패스 6929" d="M27.319 4.4A4.723 4.723 0 0 0 24.425.047a.579.579 0 0 0-.8.537v2.86a1.033 1.033 0 0 1-2.065 0V.582a.578.578 0 0 0-.793-.539 4.714 4.714 0 0 0-.527 8.445l.272 5.971a1.6 1.6 0 0 0 1.593 1.523h.968a1.6 1.6 0 0 0 1.594-1.528l.252-5.945a4.72 4.72 0 0 0 2.4-4.108" transform="translate(-11.606)" style="fill:#f53b3b"/>
        <path data-name="패스 6930" d="M3.008 31.833A3.008 3.008 0 0 1 0 28.824l.1-3.219a1.8 1.8 0 0 1 1.8-1.8h2.2a1.8 1.8 0 0 1 1.8 1.8l.119 3.219a3.008 3.008 0 0 1-3.008 3.008" transform="translate(.288 -15.851)" style="fill:#f53b3b"/>
    </g>
</svg>
