<svg xmlns="http://www.w3.org/2000/svg" width="16" height="16.002" viewBox="0 0 16 16.002">
    <path data-name="패스 6897" d="M8.719 2.525a.628.628 0 0 0-.2 1.24 3.186 3.186 0 0 1 2.561 3.153.616.616 0 0 0 .92.545.633.633 0 0 0 .308-.545 4.447 4.447 0 0 0-3.591-4.393zM16 12.857v1.887A1.244 1.244 0 0 1 14.77 16H1.23A1.244 1.244 0 0 1 0 14.745v-1.888A1.244 1.244 0 0 1 1.23 11.6V6.919A6.844 6.844 0 0 1 8.051 0a6.905 6.905 0 0 1 6.719 7v4.6A1.244 1.244 0 0 1 16 12.857M2.462 11.6h11.076V7a5.655 5.655 0 0 0-5.5-5.738H8a5.6 5.6 0 0 0-5.539 5.66zm12.308 1.257H1.231v1.886H14.77z" style="fill:#fff"/>
    <path data-name="사각형 2069" style="fill:none" d="M0 0h16v16.001H0z"/>
</svg>
