<svg xmlns="http://www.w3.org/2000/svg" width="16.481" height="14.999" viewBox="0 0 16.481 14.999">
    <defs>
        <clipPath id="wdng2wepqa">
            <path data-name="사각형 2561" style="fill:#f53b3b" d="M0 0h16.481v14.999H0z"/>
        </clipPath>
    </defs>
    <g data-name="그룹 771" style="clip-path:url(#wdng2wepqa)">
        <path data-name="패스 14151" d="M12.446 29.935v7.879a.394.394 0 0 1-.394.394H1.638a.394.394 0 0 1-.394-.394V27.4a.394.394 0 0 1 .394-.394h8.317a14.257 14.257 0 0 1 1.2-1.24H1.636A1.64 1.64 0 0 0 0 27.4v10.413a1.64 1.64 0 0 0 1.638 1.638h10.414a1.64 1.64 0 0 0 1.638-1.638v-9.222a1.639 1.639 0 0 0-.03-.31q-.316.378-.638.819c-.194.267-.386.546-.577.834" transform="translate(0 -24.452)" style="fill:#616161"/>
        <path data-name="패스 14152" d="M49.765 0a5.092 5.092 0 0 0-3.214 1.429 12.534 12.534 0 0 0-1.146 1.124 42.218 42.218 0 0 0-4.677 6.963C38.975 8.08 38.046 6.9 35.7 6.824c2.558 1.558 3.4 3.738 4.35 5.017a.94.94 0 0 0 1.569-.091c1.616-2.814 3.1-5.89 4.713-8.2a16.522 16.522 0 0 1 1.055-1.367A6.356 6.356 0 0 1 50.364.055a3.294 3.294 0 0 0-.6-.055" transform="translate(-33.883)" style="fill:#f53b3b"/>
    </g>
</svg>
