<svg xmlns="http://www.w3.org/2000/svg" width="97.96" height="94.137" viewBox="0 0 97.96 94.137">
    <defs>
        <clipPath id="nrd39y7eja">
            <path data-name="사각형 2582" style="fill:#777" d="M0 0h83.463v78.5H0z"/>
        </clipPath>
    </defs>
    <g data-name="그룹 787" style="clip-path:url(#nrd39y7eja)" transform="rotate(-12.04 82.505 8.726)">
        <path data-name="패스 14118" d="M61.9 110.38c-3.082-3.088-7.586-5.528-13.745-7.451a110.608 110.608 0 0 0-21.1-3.949l-1.39-.147 5.512 30.45a2.442 2.442 0 0 1-.484 1.955 2.2 2.2 0 0 1-1.736.856h-7.88a2.285 2.285 0 0 1-2.229-1.99L13.88 97.963l-.841-.046c-.607-.033-1.218-.062-1.833-.092a11.436 11.436 0 0 1-7.955-3.8A12.6 12.6 0 0 1 0 85.517a12.1 12.1 0 0 1 10.538-12.256A241.318 241.318 0 0 0 42 68.111c9.317-2.333 15.835-5.129 19.905-8.541zm10.8-13.34-1.061.018V74.027l1.061.018c5.936.106 10.763 5.261 10.763 11.5S78.636 96.934 72.7 97.04" transform="translate(0 -53.595)" style="fill:#777"/>
        <path data-name="패스 14119" d="M682.777 0a2.142 2.142 0 0 0-2.087 2.191v59.148a2.089 2.089 0 1 0 4.173 0V2.191A2.142 2.142 0 0 0 682.777 0" transform="translate(-615.659)" style="fill:#777"/>
    </g>
</svg>
