<svg xmlns="http://www.w3.org/2000/svg" width="24" height="23" viewBox="0 0 24 23">
    <defs>
        <clipPath id="zec1qj5nxa">
            <path data-name="사각형 4277" style="fill:#fff" d="M0 0h24v23H0z"/>
        </clipPath>
    </defs>
    <g data-name="그룹 7992" style="clip-path:url(#zec1qj5nxa)">
        <path data-name="패스 14263" d="M265.907 422.951a1.575 1.575 0 1 1 1.575 1.59 1.582 1.582 0 0 1-1.575-1.59" transform="translate(-259.649 -411.348)" style="fill:#fff"/>
        <path data-name="패스 14264" d="M686.715 422.951a1.575 1.575 0 1 1 1.576 1.59 1.583 1.583 0 0 1-1.576-1.59" transform="translate(-670.553 -411.348)" style="fill:#fff"/>
        <path data-name="패스 14265" d="M476.311 422.951a1.575 1.575 0 1 1 1.575 1.59 1.583 1.583 0 0 1-1.575-1.59" transform="translate(-465.101 -411.348)" style="fill:#fff"/>
        <path data-name="패스 14266" d="M12.422 23a11.2 11.2 0 0 1-4.732-1.038.678.678 0 0 1-.077-.04 5.554 5.554 0 0 0-1.673-.5 10.365 10.365 0 0 0-4.719.451.939.939 0 0 1-1.149-.543.955.955 0 0 1 .428-1.206 8.1 8.1 0 0 0 1.508-1.093c.5-.47 1.047-1.154.827-1.745-.118-.314-.24-.623-.371-.95a12.876 12.876 0 0 1-1.21-4.861 11.5 11.5 0 0 1 3.333-8.114A11.327 11.327 0 0 1 8.2.9a11.311 11.311 0 0 1 8.853 0 11.327 11.327 0 0 1 3.614 2.459A11.5 11.5 0 0 1 24 11.476a11.225 11.225 0 0 1-.931 4.485 11.78 11.78 0 0 1-6.191 6.13 11.36 11.36 0 0 1-4.456.909M8.5 20.247a9.339 9.339 0 0 0 3.919.852 9.789 9.789 0 0 0 9.695-9.623 9.489 9.489 0 1 0-18.978 0 11.239 11.239 0 0 0 1.075 4.152c.128.322.26.654.385.986a2.863 2.863 0 0 1-.13 2.263 4.113 4.113 0 0 1-.315.551 8.721 8.721 0 0 1 4.349.819" style="fill:#fff"/>
    </g>
</svg>
