<svg id="icon_main_black_chat" xmlns="http://www.w3.org/2000/svg" xmlns:xlink="http://www.w3.org/1999/xlink" width="24" height="23" viewBox="0 0 24 23">
  <defs>
    <clipPath id="clip-path">
      <rect id="사각형_4277" data-name="사각형 4277" width="24" height="23" fill="#202020"/>
    </clipPath>
  </defs>
  <g id="그룹_7992" data-name="그룹 7992" clip-path="url(#clip-path)">
    <path id="패스_14263" data-name="패스 14263" d="M265.907,422.951a1.575,1.575,0,1,1,1.575,1.59,1.582,1.582,0,0,1-1.575-1.59" transform="translate(-259.649 -411.348)" fill="#202020"/>
    <path id="패스_14264" data-name="패스 14264" d="M686.715,422.951a1.575,1.575,0,1,1,1.576,1.59,1.583,1.583,0,0,1-1.576-1.59" transform="translate(-670.553 -411.348)" fill="#202020"/>
    <path id="패스_14265" data-name="패스 14265" d="M476.311,422.951a1.575,1.575,0,1,1,1.575,1.59,1.583,1.583,0,0,1-1.575-1.59" transform="translate(-465.101 -411.348)" fill="#202020"/>
    <path id="패스_14266" data-name="패스 14266" d="M12.422,23A11.2,11.2,0,0,1,7.69,21.962a.678.678,0,0,1-.077-.04,5.554,5.554,0,0,0-1.673-.5,10.365,10.365,0,0,0-4.719.451.939.939,0,0,1-1.149-.543A.955.955,0,0,1,.5,20.124a8.1,8.1,0,0,0,1.508-1.093c.5-.47,1.047-1.154.827-1.745-.118-.314-.24-.623-.371-.95a12.876,12.876,0,0,1-1.21-4.861A11.5,11.5,0,0,1,4.587,3.361,11.327,11.327,0,0,1,8.2.9a11.311,11.311,0,0,1,8.853,0,11.327,11.327,0,0,1,3.614,2.459A11.5,11.5,0,0,1,24,11.476a11.225,11.225,0,0,1-.931,4.485,11.78,11.78,0,0,1-6.191,6.13A11.36,11.36,0,0,1,12.422,23M8.5,20.247a9.339,9.339,0,0,0,3.919.852,9.789,9.789,0,0,0,9.695-9.623,9.489,9.489,0,1,0-18.978,0,11.239,11.239,0,0,0,1.075,4.152c.128.322.26.654.385.986a2.863,2.863,0,0,1-.13,2.263,4.113,4.113,0,0,1-.315.551,8.721,8.721,0,0,1,4.349.819" transform="translate(0 0)" fill="#202020"/>
  </g>
</svg>
