<svg xmlns="http://www.w3.org/2000/svg" width="90" height="88" viewBox="0 0 90 88">
    <defs>
        <clipPath id="t03v1plf9a">
            <path data-name="사각형 4267" style="fill:none" d="M0 0h90v88H0z"/>
        </clipPath>
    </defs>
    <g data-name="그룹 7969" style="clip-path:url(#t03v1plf9a)">
        <path data-name="패스 14257" d="M99.75 76.309v1.762A10.2 10.2 0 0 1 89.542 88.26H64.069l-.482.481v9.779l4.155-4.149h25.474a10.2 10.2 0 0 0 10.207-10.19v-7.872z" transform="translate(-36.668 -44.061)" style="fill:#dbdbdb"/>
        <path data-name="패스 14258" d="M68.035 27.043H34.156a1.842 1.842 0 1 0 0 3.684h33.879a1.842 1.842 0 1 0 0-3.684" transform="translate(-18.632 -15.615)" style="fill:#777"/>
        <path data-name="패스 14259" d="M70.444 53.867a1.842 1.842 0 1 0 0-3.684H49.861a1.842 1.842 0 1 0 0 3.684z" transform="translate(-27.689 -28.976)" style="fill:#777"/>
        <path data-name="패스 14260" d="M68.035 73.325H34.156a1.842 1.842 0 1 0 0 3.684h33.879a1.842 1.842 0 1 0 0-3.684" transform="translate(-18.632 -42.338)" style="fill:#777"/>
        <path data-name="패스 14261" d="M77.947 30.406h-13.02V12.032A12.056 12.056 0 0 0 52.874 0H12.053A12.055 12.055 0 0 0 0 12.032V34.01a12.056 12.056 0 0 0 12.053 12.032h1.93v9.71a1.846 1.846 0 0 0 3.15 1.3l7.94-7.925v15.289a12.056 12.056 0 0 0 12.053 12.032h24.709L72.867 87.46a1.846 1.846 0 0 0 3.15-1.3v-9.71h1.93A12.056 12.056 0 0 0 90 64.416V42.438a12.056 12.056 0 0 0-12.053-12.032M27.4 42.358a1.847 1.847 0 0 0-1.3.539l-.483.481-7.944 7.922v-7.1a1.844 1.844 0 0 0-1.845-1.842h-3.775a8.364 8.364 0 0 1-8.362-8.348V12.032a8.364 8.364 0 0 1 8.362-8.348h40.821a8.364 8.364 0 0 1 8.362 8.348V34.01a8.365 8.365 0 0 1-7.508 8.3 8.506 8.506 0 0 1-.854.043zm58.909 22.058a8.365 8.365 0 0 1-8.363 8.348h-3.774a1.844 1.844 0 0 0-1.845 1.842v7.1L63.9 73.3a1.847 1.847 0 0 0-1.3-.54H37.126a8.365 8.365 0 0 1-8.363-8.348v-18.37h24.111q.311 0 .618-.016c.072 0 .142-.011.213-.016.133-.009.265-.017.4-.03.086-.008.171-.022.257-.032.115-.014.231-.027.345-.044.089-.014.177-.032.266-.047.108-.019.218-.036.326-.058.088-.018.175-.041.263-.06.106-.025.214-.047.319-.074.085-.022.168-.048.253-.071.106-.03.213-.057.318-.09.086-.027.171-.058.256-.087l.3-.1c.1-.034.175-.069.263-.1s.19-.072.283-.112.179-.081.269-.121.177-.077.263-.119.174-.088.261-.133.173-.086.258-.132.167-.1.251-.144.17-.095.253-.145.163-.1.245-.156.164-.1.244-.156l.235-.166c.078-.055.16-.111.238-.169s.149-.117.224-.175.155-.119.231-.181.143-.123.215-.185.15-.127.223-.193.138-.13.206-.2.143-.133.212-.2.132-.138.2-.206.135-.139.2-.21.126-.144.188-.216.129-.145.191-.22.119-.15.179-.225.121-.15.179-.228.114-.158.17-.237.113-.154.166-.233.108-.165.161-.247l.153-.239c.053-.081.1-.172.15-.258s.1-.161.141-.244.093-.178.139-.267.087-.166.128-.25.084-.181.125-.272.08-.172.118-.259.074-.185.112-.278.072-.176.1-.266.067-.192.1-.289.062-.178.091-.268.058-.2.086-.3.053-.18.077-.271.048-.2.072-.3.045-.184.064-.278.039-.207.058-.31.036-.186.05-.279.029-.213.043-.319.026-.186.036-.28.018-.218.027-.327c.008-.093.017-.187.022-.281.006-.111.008-.223.011-.335 0-.082.008-.163.008-.245h13.02a8.365 8.365 0 0 1 8.363 8.348z" style="fill:#777"/>
    </g>
</svg>
