<svg xmlns="http://www.w3.org/2000/svg" width="19.13" height="16.087" viewBox="0 0 19.13 16.087">
    <defs>
        <clipPath id="whjuex6zla">
            <path data-name="사각형 2238" d="M0 0h19.13v16.087H0z"/>
        </clipPath>
    </defs>
    <g data-name="그룹 639" style="clip-path:url(#whjuex6zla)">
        <path data-name="패스 6965" d="M12.607 16.087a.693.693 0 0 1-.511-.224L8.12 11.525H5.762A5.763 5.763 0 1 1 5.762 0h7.606a5.763 5.763 0 0 1 0 11.525H13.3v3.87a.692.692 0 0 1-.692.692M5.762 1.385a4.378 4.378 0 1 0 0 8.755h2.662a.692.692 0 0 1 .51.225l2.98 3.251v-2.784a.692.692 0 0 1 .692-.692h.761a4.378 4.378 0 0 0 0-8.755z"/>
        <path data-name="패스 6966" d="M6.181 6.91a.692.692 0 0 1-.692-.692v-.923a.693.693 0 1 1 1.385 0v.923a.692.692 0 0 1-.692.692"/>
        <path data-name="패스 6967" d="M9.565 6.91a.692.692 0 0 1-.692-.692v-.923a.693.693 0 0 1 1.385 0v.923a.692.692 0 0 1-.692.692"/>
        <path data-name="패스 6968" d="M12.949 6.91a.692.692 0 0 1-.692-.692v-.923a.693.693 0 0 1 1.385 0v.923a.692.692 0 0 1-.692.692"/>
    </g>
</svg>
