<svg xmlns="http://www.w3.org/2000/svg" width="18.049" height="17.74" viewBox="0 0 18.049 17.74">
    <defs>
        <clipPath id="usfujvr88a">
            <path data-name="사각형 2711" style="fill:#e9e9e9" d="M0 0h13.718v13.047H0z"/>
        </clipPath>
    </defs>
    <g data-name="그룹 955" transform="rotate(25.97 2.86 12.403)" style="clip-path:url(#usfujvr88a)">
        <path data-name="패스 14189" d="M.57 88.639a19.644 19.644 0 0 0 6.786 5.741c1.767.819 2.533.115 2.829-.236l.643-.76a.611.611 0 0 0-.072-.861l-1.5-1.272c-.148-.125-.394-.333-1.456.254a.821.821 0 0 1-.813.018 12.941 12.941 0 0 1-3.534-2.99.821.821 0 0 1-.117-.8c.4-1.144.157-1.353.01-1.478l-1.5-1.272a.611.611 0 0 0-.861.072l-.643.76c-.3.35-.668 1.388.236 2.829" transform="translate(1.372 -83.275)" style="fill:#e9e9e9"/>
    </g>
</svg>
